<mxfile host="app.diagrams.net" agent="Mozilla/5.0 (Windows NT 10.0; Win64; x64) AppleWebKit/537.36 (KHTML, like Gecko) Chrome/129.0.0.0 Safari/537.36" version="24.7.17">
  <diagram id="C5RBs43oDa-KdzZeNtuy" name="Page-1">
    <mxGraphModel dx="1837" dy="1154" grid="1" gridSize="10" guides="1" tooltips="1" connect="1" arrows="1" fold="1" page="1" pageScale="1" pageWidth="827" pageHeight="2350" math="0" shadow="0">
      <root>
        <mxCell id="WIyWlLk6GJQsqaUBKTNV-0" />
        <mxCell id="WIyWlLk6GJQsqaUBKTNV-1" parent="WIyWlLk6GJQsqaUBKTNV-0" />
        <mxCell id="eDUa2lFW1ZnezwuMrdnl-3" value="i" style="edgeStyle=orthogonalEdgeStyle;rounded=0;orthogonalLoop=1;jettySize=auto;html=1;exitX=0.5;exitY=1;exitDx=0;exitDy=0;" parent="WIyWlLk6GJQsqaUBKTNV-1" source="eDUa2lFW1ZnezwuMrdnl-1" target="eDUa2lFW1ZnezwuMrdnl-2" edge="1">
          <mxGeometry relative="1" as="geometry" />
        </mxCell>
        <mxCell id="eDUa2lFW1ZnezwuMrdnl-1" value="checkValidity(n)" style="rounded=1;whiteSpace=wrap;html=1;arcSize=37;" parent="WIyWlLk6GJQsqaUBKTNV-1" vertex="1">
          <mxGeometry x="468.57" y="30" width="120" height="60" as="geometry" />
        </mxCell>
        <mxCell id="eDUa2lFW1ZnezwuMrdnl-5" style="edgeStyle=orthogonalEdgeStyle;rounded=0;orthogonalLoop=1;jettySize=auto;html=1;exitX=1;exitY=0.5;exitDx=0;exitDy=0;entryX=0.5;entryY=0;entryDx=0;entryDy=0;" parent="WIyWlLk6GJQsqaUBKTNV-1" source="eDUa2lFW1ZnezwuMrdnl-2" target="eDUa2lFW1ZnezwuMrdnl-6" edge="1">
          <mxGeometry relative="1" as="geometry">
            <mxPoint x="528.57" y="220" as="targetPoint" />
          </mxGeometry>
        </mxCell>
        <mxCell id="eDUa2lFW1ZnezwuMrdnl-26" value="No" style="edgeLabel;html=1;align=center;verticalAlign=middle;resizable=0;points=[];" parent="eDUa2lFW1ZnezwuMrdnl-5" vertex="1" connectable="0">
          <mxGeometry x="-0.2238" y="-2" relative="1" as="geometry">
            <mxPoint as="offset" />
          </mxGeometry>
        </mxCell>
        <mxCell id="eDUa2lFW1ZnezwuMrdnl-10" style="edgeStyle=orthogonalEdgeStyle;rounded=0;orthogonalLoop=1;jettySize=auto;html=1;" parent="WIyWlLk6GJQsqaUBKTNV-1" source="eDUa2lFW1ZnezwuMrdnl-2" target="eDUa2lFW1ZnezwuMrdnl-9" edge="1">
          <mxGeometry relative="1" as="geometry" />
        </mxCell>
        <mxCell id="eDUa2lFW1ZnezwuMrdnl-22" value="Yes" style="edgeLabel;html=1;align=center;verticalAlign=middle;resizable=0;points=[];" parent="eDUa2lFW1ZnezwuMrdnl-10" vertex="1" connectable="0">
          <mxGeometry x="-0.05" y="1" relative="1" as="geometry">
            <mxPoint as="offset" />
          </mxGeometry>
        </mxCell>
        <mxCell id="eDUa2lFW1ZnezwuMrdnl-2" value="is n &amp;lt; 5 or n &amp;gt; 19" style="rhombus;whiteSpace=wrap;html=1;direction=south;" parent="WIyWlLk6GJQsqaUBKTNV-1" vertex="1">
          <mxGeometry x="468.57" y="110" width="120" height="80" as="geometry" />
        </mxCell>
        <mxCell id="eDUa2lFW1ZnezwuMrdnl-8" style="edgeStyle=orthogonalEdgeStyle;rounded=0;orthogonalLoop=1;jettySize=auto;html=1;" parent="WIyWlLk6GJQsqaUBKTNV-1" source="eDUa2lFW1ZnezwuMrdnl-6" target="eDUa2lFW1ZnezwuMrdnl-7" edge="1">
          <mxGeometry relative="1" as="geometry" />
        </mxCell>
        <mxCell id="eDUa2lFW1ZnezwuMrdnl-6" value="i = 2" style="rounded=0;whiteSpace=wrap;html=1;" parent="WIyWlLk6GJQsqaUBKTNV-1" vertex="1">
          <mxGeometry x="468.57" y="210" width="120" height="40" as="geometry" />
        </mxCell>
        <mxCell id="eDUa2lFW1ZnezwuMrdnl-11" style="edgeStyle=orthogonalEdgeStyle;rounded=0;orthogonalLoop=1;jettySize=auto;html=1;" parent="WIyWlLk6GJQsqaUBKTNV-1" source="eDUa2lFW1ZnezwuMrdnl-7" target="eDUa2lFW1ZnezwuMrdnl-12" edge="1">
          <mxGeometry relative="1" as="geometry">
            <mxPoint x="618.57" y="310" as="targetPoint" />
          </mxGeometry>
        </mxCell>
        <mxCell id="eDUa2lFW1ZnezwuMrdnl-25" value="No" style="edgeLabel;html=1;align=center;verticalAlign=middle;resizable=0;points=[];" parent="eDUa2lFW1ZnezwuMrdnl-11" vertex="1" connectable="0">
          <mxGeometry x="-0.1716" y="1" relative="1" as="geometry">
            <mxPoint as="offset" />
          </mxGeometry>
        </mxCell>
        <mxCell id="eDUa2lFW1ZnezwuMrdnl-14" style="edgeStyle=orthogonalEdgeStyle;rounded=0;orthogonalLoop=1;jettySize=auto;html=1;" parent="WIyWlLk6GJQsqaUBKTNV-1" source="eDUa2lFW1ZnezwuMrdnl-7" edge="1">
          <mxGeometry relative="1" as="geometry">
            <mxPoint x="528.57" y="370" as="targetPoint" />
          </mxGeometry>
        </mxCell>
        <mxCell id="eDUa2lFW1ZnezwuMrdnl-27" value="Yes" style="edgeLabel;html=1;align=center;verticalAlign=middle;resizable=0;points=[];" parent="eDUa2lFW1ZnezwuMrdnl-14" vertex="1" connectable="0">
          <mxGeometry x="-0.2172" y="-1" relative="1" as="geometry">
            <mxPoint as="offset" />
          </mxGeometry>
        </mxCell>
        <mxCell id="eDUa2lFW1ZnezwuMrdnl-7" value="is n divisible by i" style="rhombus;whiteSpace=wrap;html=1;direction=south;" parent="WIyWlLk6GJQsqaUBKTNV-1" vertex="1">
          <mxGeometry x="468.57" y="270" width="120" height="80" as="geometry" />
        </mxCell>
        <mxCell id="eDUa2lFW1ZnezwuMrdnl-9" value="return False" style="rounded=0;whiteSpace=wrap;html=1;" parent="WIyWlLk6GJQsqaUBKTNV-1" vertex="1">
          <mxGeometry x="648.57" y="130" width="120" height="40" as="geometry" />
        </mxCell>
        <mxCell id="eDUa2lFW1ZnezwuMrdnl-12" value="return False" style="rounded=0;whiteSpace=wrap;html=1;" parent="WIyWlLk6GJQsqaUBKTNV-1" vertex="1">
          <mxGeometry x="648.57" y="290" width="120" height="40" as="geometry" />
        </mxCell>
        <mxCell id="eDUa2lFW1ZnezwuMrdnl-28" style="edgeStyle=orthogonalEdgeStyle;rounded=0;orthogonalLoop=1;jettySize=auto;html=1;entryX=0;entryY=0.5;entryDx=0;entryDy=0;" parent="WIyWlLk6GJQsqaUBKTNV-1" source="eDUa2lFW1ZnezwuMrdnl-15" target="eDUa2lFW1ZnezwuMrdnl-29" edge="1">
          <mxGeometry relative="1" as="geometry">
            <mxPoint x="648.57" y="470" as="targetPoint" />
          </mxGeometry>
        </mxCell>
        <mxCell id="eDUa2lFW1ZnezwuMrdnl-31" value="Yes" style="edgeLabel;html=1;align=center;verticalAlign=middle;resizable=0;points=[];" parent="eDUa2lFW1ZnezwuMrdnl-28" vertex="1" connectable="0">
          <mxGeometry x="-0.2034" relative="1" as="geometry">
            <mxPoint as="offset" />
          </mxGeometry>
        </mxCell>
        <mxCell id="eDUa2lFW1ZnezwuMrdnl-15" value="is i &amp;lt; n // 2" style="rhombus;whiteSpace=wrap;html=1;direction=south;" parent="WIyWlLk6GJQsqaUBKTNV-1" vertex="1">
          <mxGeometry x="468.57" y="430" width="120" height="80" as="geometry" />
        </mxCell>
        <mxCell id="eDUa2lFW1ZnezwuMrdnl-17" value="" style="endArrow=classic;html=1;rounded=0;entryX=0.5;entryY=1;entryDx=0;entryDy=0;" parent="WIyWlLk6GJQsqaUBKTNV-1" edge="1">
          <mxGeometry width="50" height="50" relative="1" as="geometry">
            <mxPoint x="428.57" y="260" as="sourcePoint" />
            <mxPoint x="528.57" y="260" as="targetPoint" />
          </mxGeometry>
        </mxCell>
        <mxCell id="eDUa2lFW1ZnezwuMrdnl-18" value="" style="endArrow=none;html=1;rounded=0;entryX=0.5;entryY=1;entryDx=0;entryDy=0;" parent="WIyWlLk6GJQsqaUBKTNV-1" target="eDUa2lFW1ZnezwuMrdnl-15" edge="1">
          <mxGeometry width="50" height="50" relative="1" as="geometry">
            <mxPoint x="428.57" y="470" as="sourcePoint" />
            <mxPoint x="468.57" y="420" as="targetPoint" />
          </mxGeometry>
        </mxCell>
        <mxCell id="eDUa2lFW1ZnezwuMrdnl-19" value="" style="endArrow=none;html=1;rounded=0;" parent="WIyWlLk6GJQsqaUBKTNV-1" edge="1">
          <mxGeometry width="50" height="50" relative="1" as="geometry">
            <mxPoint x="428.57" y="470" as="sourcePoint" />
            <mxPoint x="428.57" y="260" as="targetPoint" />
            <Array as="points">
              <mxPoint x="428.57" y="280" />
            </Array>
          </mxGeometry>
        </mxCell>
        <mxCell id="eDUa2lFW1ZnezwuMrdnl-20" value="No" style="edgeLabel;html=1;align=center;verticalAlign=middle;resizable=0;points=[];" parent="eDUa2lFW1ZnezwuMrdnl-19" vertex="1" connectable="0">
          <mxGeometry x="-0.0923" relative="1" as="geometry">
            <mxPoint as="offset" />
          </mxGeometry>
        </mxCell>
        <mxCell id="eDUa2lFW1ZnezwuMrdnl-29" value="return True" style="rounded=0;whiteSpace=wrap;html=1;" parent="WIyWlLk6GJQsqaUBKTNV-1" vertex="1">
          <mxGeometry x="648.57" y="450" width="120" height="40" as="geometry" />
        </mxCell>
        <mxCell id="eDUa2lFW1ZnezwuMrdnl-34" style="edgeStyle=orthogonalEdgeStyle;rounded=0;orthogonalLoop=1;jettySize=auto;html=1;" parent="WIyWlLk6GJQsqaUBKTNV-1" source="eDUa2lFW1ZnezwuMrdnl-32" target="eDUa2lFW1ZnezwuMrdnl-33" edge="1">
          <mxGeometry relative="1" as="geometry" />
        </mxCell>
        <mxCell id="eDUa2lFW1ZnezwuMrdnl-32" value="getInitRow(dim, zeroed)" style="rounded=1;whiteSpace=wrap;html=1;arcSize=37;" parent="WIyWlLk6GJQsqaUBKTNV-1" vertex="1">
          <mxGeometry x="80.32999999999993" y="620" width="160" height="60" as="geometry" />
        </mxCell>
        <mxCell id="eDUa2lFW1ZnezwuMrdnl-37" style="edgeStyle=orthogonalEdgeStyle;rounded=0;orthogonalLoop=1;jettySize=auto;html=1;entryX=0;entryY=0.5;entryDx=0;entryDy=0;" parent="WIyWlLk6GJQsqaUBKTNV-1" source="eDUa2lFW1ZnezwuMrdnl-33" target="eDUa2lFW1ZnezwuMrdnl-38" edge="1">
          <mxGeometry relative="1" as="geometry">
            <mxPoint x="170.33000000000004" y="770" as="targetPoint" />
          </mxGeometry>
        </mxCell>
        <mxCell id="eDUa2lFW1ZnezwuMrdnl-33" value="arrInit = []" style="rounded=0;whiteSpace=wrap;html=1;" parent="WIyWlLk6GJQsqaUBKTNV-1" vertex="1">
          <mxGeometry x="100.32999999999993" y="710" width="120" height="40" as="geometry" />
        </mxCell>
        <mxCell id="eDUa2lFW1ZnezwuMrdnl-42" style="edgeStyle=orthogonalEdgeStyle;rounded=0;orthogonalLoop=1;jettySize=auto;html=1;" parent="WIyWlLk6GJQsqaUBKTNV-1" source="eDUa2lFW1ZnezwuMrdnl-38" target="eDUa2lFW1ZnezwuMrdnl-41" edge="1">
          <mxGeometry relative="1" as="geometry" />
        </mxCell>
        <mxCell id="eDUa2lFW1ZnezwuMrdnl-45" value="Yes" style="edgeLabel;html=1;align=center;verticalAlign=middle;resizable=0;points=[];" parent="eDUa2lFW1ZnezwuMrdnl-42" vertex="1" connectable="0">
          <mxGeometry x="0.5222" y="-1" relative="1" as="geometry">
            <mxPoint as="offset" />
          </mxGeometry>
        </mxCell>
        <mxCell id="eDUa2lFW1ZnezwuMrdnl-58" style="edgeStyle=orthogonalEdgeStyle;rounded=0;orthogonalLoop=1;jettySize=auto;html=1;entryX=0.5;entryY=0;entryDx=0;entryDy=0;" parent="WIyWlLk6GJQsqaUBKTNV-1" source="eDUa2lFW1ZnezwuMrdnl-38" target="eDUa2lFW1ZnezwuMrdnl-59" edge="1">
          <mxGeometry relative="1" as="geometry">
            <mxPoint x="330" y="869.9999999999999" as="targetPoint" />
          </mxGeometry>
        </mxCell>
        <mxCell id="eDUa2lFW1ZnezwuMrdnl-62" value="No" style="edgeLabel;html=1;align=center;verticalAlign=middle;resizable=0;points=[];" parent="eDUa2lFW1ZnezwuMrdnl-58" vertex="1" connectable="0">
          <mxGeometry x="-0.1237" relative="1" as="geometry">
            <mxPoint as="offset" />
          </mxGeometry>
        </mxCell>
        <mxCell id="eDUa2lFW1ZnezwuMrdnl-38" value="is zeroed" style="rhombus;whiteSpace=wrap;html=1;direction=south;" parent="WIyWlLk6GJQsqaUBKTNV-1" vertex="1">
          <mxGeometry x="100" y="770" width="120" height="80" as="geometry" />
        </mxCell>
        <mxCell id="eDUa2lFW1ZnezwuMrdnl-44" style="edgeStyle=orthogonalEdgeStyle;rounded=0;orthogonalLoop=1;jettySize=auto;html=1;" parent="WIyWlLk6GJQsqaUBKTNV-1" source="eDUa2lFW1ZnezwuMrdnl-41" target="eDUa2lFW1ZnezwuMrdnl-43" edge="1">
          <mxGeometry relative="1" as="geometry" />
        </mxCell>
        <mxCell id="eDUa2lFW1ZnezwuMrdnl-41" value="n = 0" style="rounded=0;whiteSpace=wrap;html=1;" parent="WIyWlLk6GJQsqaUBKTNV-1" vertex="1">
          <mxGeometry x="100" y="870" width="120" height="40" as="geometry" />
        </mxCell>
        <mxCell id="eDUa2lFW1ZnezwuMrdnl-51" style="edgeStyle=orthogonalEdgeStyle;rounded=0;orthogonalLoop=1;jettySize=auto;html=1;" parent="WIyWlLk6GJQsqaUBKTNV-1" source="eDUa2lFW1ZnezwuMrdnl-43" target="eDUa2lFW1ZnezwuMrdnl-50" edge="1">
          <mxGeometry relative="1" as="geometry" />
        </mxCell>
        <mxCell id="eDUa2lFW1ZnezwuMrdnl-43" value="add n * dim to arrInit " style="rounded=0;whiteSpace=wrap;html=1;" parent="WIyWlLk6GJQsqaUBKTNV-1" vertex="1">
          <mxGeometry x="100" y="930" width="120" height="40" as="geometry" />
        </mxCell>
        <mxCell id="eDUa2lFW1ZnezwuMrdnl-75" style="edgeStyle=orthogonalEdgeStyle;rounded=0;orthogonalLoop=1;jettySize=auto;html=1;entryX=0;entryY=0.5;entryDx=0;entryDy=0;" parent="WIyWlLk6GJQsqaUBKTNV-1" source="eDUa2lFW1ZnezwuMrdnl-46" target="eDUa2lFW1ZnezwuMrdnl-74" edge="1">
          <mxGeometry relative="1" as="geometry" />
        </mxCell>
        <mxCell id="eDUa2lFW1ZnezwuMrdnl-46" value="is n &amp;lt; dim" style="rhombus;whiteSpace=wrap;html=1;direction=south;" parent="WIyWlLk6GJQsqaUBKTNV-1" vertex="1">
          <mxGeometry x="100" y="1050" width="120" height="80" as="geometry" />
        </mxCell>
        <mxCell id="eDUa2lFW1ZnezwuMrdnl-49" style="edgeStyle=orthogonalEdgeStyle;rounded=0;orthogonalLoop=1;jettySize=auto;html=1;" parent="WIyWlLk6GJQsqaUBKTNV-1" source="eDUa2lFW1ZnezwuMrdnl-48" target="eDUa2lFW1ZnezwuMrdnl-15" edge="1">
          <mxGeometry relative="1" as="geometry" />
        </mxCell>
        <mxCell id="eDUa2lFW1ZnezwuMrdnl-48" value="i += 1" style="rounded=0;whiteSpace=wrap;html=1;" parent="WIyWlLk6GJQsqaUBKTNV-1" vertex="1">
          <mxGeometry x="468.57" y="370" width="120" height="40" as="geometry" />
        </mxCell>
        <mxCell id="eDUa2lFW1ZnezwuMrdnl-52" style="edgeStyle=orthogonalEdgeStyle;rounded=0;orthogonalLoop=1;jettySize=auto;html=1;" parent="WIyWlLk6GJQsqaUBKTNV-1" source="eDUa2lFW1ZnezwuMrdnl-50" target="eDUa2lFW1ZnezwuMrdnl-46" edge="1">
          <mxGeometry relative="1" as="geometry" />
        </mxCell>
        <mxCell id="eDUa2lFW1ZnezwuMrdnl-50" value="n += 1" style="rounded=0;whiteSpace=wrap;html=1;" parent="WIyWlLk6GJQsqaUBKTNV-1" vertex="1">
          <mxGeometry x="100" y="990" width="120" height="40" as="geometry" />
        </mxCell>
        <mxCell id="eDUa2lFW1ZnezwuMrdnl-54" value="" style="endArrow=classic;html=1;rounded=0;entryX=0.5;entryY=1;entryDx=0;entryDy=0;" parent="WIyWlLk6GJQsqaUBKTNV-1" edge="1">
          <mxGeometry width="50" height="50" relative="1" as="geometry">
            <mxPoint x="60" y="920" as="sourcePoint" />
            <mxPoint x="160" y="920" as="targetPoint" />
          </mxGeometry>
        </mxCell>
        <mxCell id="eDUa2lFW1ZnezwuMrdnl-55" value="" style="endArrow=none;html=1;rounded=0;entryX=0.5;entryY=1;entryDx=0;entryDy=0;" parent="WIyWlLk6GJQsqaUBKTNV-1" edge="1">
          <mxGeometry width="50" height="50" relative="1" as="geometry">
            <mxPoint x="60" y="1090" as="sourcePoint" />
            <mxPoint x="100" y="1090" as="targetPoint" />
          </mxGeometry>
        </mxCell>
        <mxCell id="eDUa2lFW1ZnezwuMrdnl-56" value="" style="endArrow=none;html=1;rounded=0;" parent="WIyWlLk6GJQsqaUBKTNV-1" edge="1">
          <mxGeometry width="50" height="50" relative="1" as="geometry">
            <mxPoint x="60" y="1090" as="sourcePoint" />
            <mxPoint x="60" y="920" as="targetPoint" />
            <Array as="points" />
          </mxGeometry>
        </mxCell>
        <mxCell id="eDUa2lFW1ZnezwuMrdnl-57" value="No" style="edgeLabel;html=1;align=center;verticalAlign=middle;resizable=0;points=[];" parent="eDUa2lFW1ZnezwuMrdnl-56" vertex="1" connectable="0">
          <mxGeometry x="-0.0923" relative="1" as="geometry">
            <mxPoint as="offset" />
          </mxGeometry>
        </mxCell>
        <mxCell id="eDUa2lFW1ZnezwuMrdnl-60" style="edgeStyle=orthogonalEdgeStyle;rounded=0;orthogonalLoop=1;jettySize=auto;html=1;" parent="WIyWlLk6GJQsqaUBKTNV-1" source="eDUa2lFW1ZnezwuMrdnl-59" edge="1">
          <mxGeometry relative="1" as="geometry">
            <mxPoint x="320" y="929.9999999999999" as="targetPoint" />
          </mxGeometry>
        </mxCell>
        <mxCell id="eDUa2lFW1ZnezwuMrdnl-59" value="n = 1" style="rounded=0;whiteSpace=wrap;html=1;" parent="WIyWlLk6GJQsqaUBKTNV-1" vertex="1">
          <mxGeometry x="260" y="870" width="120" height="40" as="geometry" />
        </mxCell>
        <mxCell id="eDUa2lFW1ZnezwuMrdnl-64" style="edgeStyle=orthogonalEdgeStyle;rounded=0;orthogonalLoop=1;jettySize=auto;html=1;" parent="WIyWlLk6GJQsqaUBKTNV-1" source="eDUa2lFW1ZnezwuMrdnl-61" target="eDUa2lFW1ZnezwuMrdnl-63" edge="1">
          <mxGeometry relative="1" as="geometry" />
        </mxCell>
        <mxCell id="eDUa2lFW1ZnezwuMrdnl-61" value="add n to arrInit" style="rounded=0;whiteSpace=wrap;html=1;" parent="WIyWlLk6GJQsqaUBKTNV-1" vertex="1">
          <mxGeometry x="260" y="930" width="120" height="40" as="geometry" />
        </mxCell>
        <mxCell id="eDUa2lFW1ZnezwuMrdnl-66" style="edgeStyle=orthogonalEdgeStyle;rounded=0;orthogonalLoop=1;jettySize=auto;html=1;" parent="WIyWlLk6GJQsqaUBKTNV-1" source="eDUa2lFW1ZnezwuMrdnl-63" target="eDUa2lFW1ZnezwuMrdnl-65" edge="1">
          <mxGeometry relative="1" as="geometry" />
        </mxCell>
        <mxCell id="eDUa2lFW1ZnezwuMrdnl-63" value="n += 1" style="rounded=0;whiteSpace=wrap;html=1;" parent="WIyWlLk6GJQsqaUBKTNV-1" vertex="1">
          <mxGeometry x="260" y="990" width="120" height="40" as="geometry" />
        </mxCell>
        <mxCell id="eDUa2lFW1ZnezwuMrdnl-76" style="edgeStyle=orthogonalEdgeStyle;rounded=0;orthogonalLoop=1;jettySize=auto;html=1;entryX=1;entryY=0.5;entryDx=0;entryDy=0;" parent="WIyWlLk6GJQsqaUBKTNV-1" source="eDUa2lFW1ZnezwuMrdnl-65" target="eDUa2lFW1ZnezwuMrdnl-74" edge="1">
          <mxGeometry relative="1" as="geometry" />
        </mxCell>
        <mxCell id="eDUa2lFW1ZnezwuMrdnl-65" value="is n &amp;lt; dim + 1" style="rhombus;whiteSpace=wrap;html=1;direction=south;" parent="WIyWlLk6GJQsqaUBKTNV-1" vertex="1">
          <mxGeometry x="260" y="1050" width="120" height="80" as="geometry" />
        </mxCell>
        <mxCell id="eDUa2lFW1ZnezwuMrdnl-69" value="" style="endArrow=none;html=1;rounded=0;entryX=0.5;entryY=1;entryDx=0;entryDy=0;" parent="WIyWlLk6GJQsqaUBKTNV-1" edge="1">
          <mxGeometry width="50" height="50" relative="1" as="geometry">
            <mxPoint x="380" y="1089.66" as="sourcePoint" />
            <mxPoint x="420" y="1089.66" as="targetPoint" />
          </mxGeometry>
        </mxCell>
        <mxCell id="eDUa2lFW1ZnezwuMrdnl-70" value="" style="endArrow=none;html=1;rounded=0;" parent="WIyWlLk6GJQsqaUBKTNV-1" edge="1">
          <mxGeometry width="50" height="50" relative="1" as="geometry">
            <mxPoint x="420" y="1090" as="sourcePoint" />
            <mxPoint x="420" y="920" as="targetPoint" />
            <Array as="points" />
          </mxGeometry>
        </mxCell>
        <mxCell id="eDUa2lFW1ZnezwuMrdnl-71" value="No" style="edgeLabel;html=1;align=center;verticalAlign=middle;resizable=0;points=[];" parent="eDUa2lFW1ZnezwuMrdnl-70" vertex="1" connectable="0">
          <mxGeometry x="-0.0923" relative="1" as="geometry">
            <mxPoint as="offset" />
          </mxGeometry>
        </mxCell>
        <mxCell id="eDUa2lFW1ZnezwuMrdnl-72" value="" style="endArrow=classic;html=1;rounded=0;" parent="WIyWlLk6GJQsqaUBKTNV-1" edge="1">
          <mxGeometry width="50" height="50" relative="1" as="geometry">
            <mxPoint x="420" y="920" as="sourcePoint" />
            <mxPoint x="320" y="920" as="targetPoint" />
          </mxGeometry>
        </mxCell>
        <mxCell id="eDUa2lFW1ZnezwuMrdnl-77" style="edgeStyle=orthogonalEdgeStyle;rounded=0;orthogonalLoop=1;jettySize=auto;html=1;" parent="WIyWlLk6GJQsqaUBKTNV-1" source="eDUa2lFW1ZnezwuMrdnl-74" target="eDUa2lFW1ZnezwuMrdnl-78" edge="1">
          <mxGeometry relative="1" as="geometry">
            <mxPoint x="240" y="1200" as="targetPoint" />
          </mxGeometry>
        </mxCell>
        <mxCell id="eDUa2lFW1ZnezwuMrdnl-74" value="shuffle arrInit" style="rounded=0;whiteSpace=wrap;html=1;" parent="WIyWlLk6GJQsqaUBKTNV-1" vertex="1">
          <mxGeometry x="180" y="1135" width="120" height="40" as="geometry" />
        </mxCell>
        <mxCell id="eDUa2lFW1ZnezwuMrdnl-78" value="return arrInit" style="rounded=0;whiteSpace=wrap;html=1;" parent="WIyWlLk6GJQsqaUBKTNV-1" vertex="1">
          <mxGeometry x="180" y="1200" width="120" height="40" as="geometry" />
        </mxCell>
        <mxCell id="FudFvcWRR2rMcuXvYy12-4" style="edgeStyle=orthogonalEdgeStyle;rounded=0;orthogonalLoop=1;jettySize=auto;html=1;" parent="WIyWlLk6GJQsqaUBKTNV-1" source="FudFvcWRR2rMcuXvYy12-0" target="FudFvcWRR2rMcuXvYy12-3" edge="1">
          <mxGeometry relative="1" as="geometry" />
        </mxCell>
        <mxCell id="FudFvcWRR2rMcuXvYy12-0" value="generateTrivialMagicSquare(dim, shift, zeroed)" style="rounded=1;whiteSpace=wrap;html=1;arcSize=37;" parent="WIyWlLk6GJQsqaUBKTNV-1" vertex="1">
          <mxGeometry x="450" y="620" width="278.86" height="60" as="geometry" />
        </mxCell>
        <mxCell id="FudFvcWRR2rMcuXvYy12-5" style="edgeStyle=orthogonalEdgeStyle;rounded=0;orthogonalLoop=1;jettySize=auto;html=1;" parent="WIyWlLk6GJQsqaUBKTNV-1" source="FudFvcWRR2rMcuXvYy12-3" edge="1">
          <mxGeometry relative="1" as="geometry">
            <mxPoint x="589.43" y="770" as="targetPoint" />
          </mxGeometry>
        </mxCell>
        <mxCell id="FudFvcWRR2rMcuXvYy12-3" value="arrInit = initRow(dim, zeroed)" style="rounded=0;whiteSpace=wrap;html=1;" parent="WIyWlLk6GJQsqaUBKTNV-1" vertex="1">
          <mxGeometry x="499.43" y="710" width="180" height="40" as="geometry" />
        </mxCell>
        <mxCell id="FudFvcWRR2rMcuXvYy12-7" style="edgeStyle=orthogonalEdgeStyle;rounded=0;orthogonalLoop=1;jettySize=auto;html=1;" parent="WIyWlLk6GJQsqaUBKTNV-1" edge="1">
          <mxGeometry relative="1" as="geometry">
            <mxPoint x="589.43" y="830" as="targetPoint" />
            <mxPoint x="589.43" y="810" as="sourcePoint" />
            <Array as="points">
              <mxPoint x="589.43" y="830" />
            </Array>
          </mxGeometry>
        </mxCell>
        <mxCell id="FudFvcWRR2rMcuXvYy12-36" style="edgeStyle=orthogonalEdgeStyle;rounded=0;orthogonalLoop=1;jettySize=auto;html=1;fontFamily=Helvetica;fontSize=12;fontColor=default;" parent="WIyWlLk6GJQsqaUBKTNV-1" source="FudFvcWRR2rMcuXvYy12-15" edge="1">
          <mxGeometry relative="1" as="geometry">
            <mxPoint x="589.43" y="890" as="targetPoint" />
          </mxGeometry>
        </mxCell>
        <mxCell id="FudFvcWRR2rMcuXvYy12-15" value="tempArr = M[len(M)-1]&lt;div&gt;shiftedArr = []&lt;/div&gt;" style="rounded=0;whiteSpace=wrap;html=1;" parent="WIyWlLk6GJQsqaUBKTNV-1" vertex="1">
          <mxGeometry x="499.43" y="830" width="180" height="40" as="geometry" />
        </mxCell>
        <mxCell id="FudFvcWRR2rMcuXvYy12-29" style="edgeStyle=orthogonalEdgeStyle;rounded=0;orthogonalLoop=1;jettySize=auto;html=1;fontFamily=Helvetica;fontSize=12;fontColor=default;" parent="WIyWlLk6GJQsqaUBKTNV-1" source="FudFvcWRR2rMcuXvYy12-19" target="FudFvcWRR2rMcuXvYy12-22" edge="1">
          <mxGeometry relative="1" as="geometry" />
        </mxCell>
        <mxCell id="FudFvcWRR2rMcuXvYy12-19" value="add tempArr[j with offset] to shiftedArr&lt;br&gt;&lt;div&gt;j += 1&lt;br&gt;&lt;/div&gt;" style="rounded=0;whiteSpace=wrap;html=1;" parent="WIyWlLk6GJQsqaUBKTNV-1" vertex="1">
          <mxGeometry x="479.43" y="950" width="220" height="40" as="geometry" />
        </mxCell>
        <mxCell id="FudFvcWRR2rMcuXvYy12-31" style="edgeStyle=orthogonalEdgeStyle;rounded=0;orthogonalLoop=1;jettySize=auto;html=1;fontFamily=Helvetica;fontSize=12;fontColor=default;" parent="WIyWlLk6GJQsqaUBKTNV-1" source="FudFvcWRR2rMcuXvYy12-22" target="FudFvcWRR2rMcuXvYy12-30" edge="1">
          <mxGeometry relative="1" as="geometry" />
        </mxCell>
        <mxCell id="FudFvcWRR2rMcuXvYy12-42" value="No" style="edgeLabel;html=1;align=center;verticalAlign=middle;resizable=0;points=[];rounded=0;strokeColor=default;fontFamily=Helvetica;fontSize=12;fontColor=default;fillColor=default;" parent="FudFvcWRR2rMcuXvYy12-31" vertex="1" connectable="0">
          <mxGeometry x="0.5191" y="-1" relative="1" as="geometry">
            <mxPoint as="offset" />
          </mxGeometry>
        </mxCell>
        <mxCell id="FudFvcWRR2rMcuXvYy12-22" value="is j &amp;lt; dim" style="rhombus;whiteSpace=wrap;html=1;direction=south;" parent="WIyWlLk6GJQsqaUBKTNV-1" vertex="1">
          <mxGeometry x="529.43" y="1010" width="120" height="80" as="geometry" />
        </mxCell>
        <mxCell id="FudFvcWRR2rMcuXvYy12-25" value="" style="endArrow=none;html=1;rounded=0;fontFamily=Helvetica;fontSize=12;fontColor=default;entryX=0.5;entryY=1;entryDx=0;entryDy=0;" parent="WIyWlLk6GJQsqaUBKTNV-1" target="FudFvcWRR2rMcuXvYy12-22" edge="1">
          <mxGeometry width="50" height="50" relative="1" as="geometry">
            <mxPoint x="469.43" y="1050" as="sourcePoint" />
            <mxPoint x="519.43" y="1050" as="targetPoint" />
          </mxGeometry>
        </mxCell>
        <mxCell id="FudFvcWRR2rMcuXvYy12-26" value="" style="endArrow=classic;html=1;rounded=0;fontFamily=Helvetica;fontSize=12;fontColor=default;" parent="WIyWlLk6GJQsqaUBKTNV-1" edge="1">
          <mxGeometry width="50" height="50" relative="1" as="geometry">
            <mxPoint x="469.43" y="880" as="sourcePoint" />
            <mxPoint x="589.43" y="880" as="targetPoint" />
          </mxGeometry>
        </mxCell>
        <mxCell id="FudFvcWRR2rMcuXvYy12-27" value="" style="endArrow=none;html=1;rounded=0;fontFamily=Helvetica;fontSize=12;fontColor=default;" parent="WIyWlLk6GJQsqaUBKTNV-1" edge="1">
          <mxGeometry width="50" height="50" relative="1" as="geometry">
            <mxPoint x="468.86" y="1050" as="sourcePoint" />
            <mxPoint x="468.86" y="880" as="targetPoint" />
          </mxGeometry>
        </mxCell>
        <mxCell id="FudFvcWRR2rMcuXvYy12-41" value="Yes" style="edgeLabel;html=1;align=center;verticalAlign=middle;resizable=0;points=[];rounded=0;strokeColor=default;fontFamily=Helvetica;fontSize=12;fontColor=default;fillColor=default;" parent="FudFvcWRR2rMcuXvYy12-27" vertex="1" connectable="0">
          <mxGeometry x="0.0235" y="-1" relative="1" as="geometry">
            <mxPoint as="offset" />
          </mxGeometry>
        </mxCell>
        <mxCell id="FudFvcWRR2rMcuXvYy12-33" style="edgeStyle=orthogonalEdgeStyle;rounded=0;orthogonalLoop=1;jettySize=auto;html=1;fontFamily=Helvetica;fontSize=12;fontColor=default;" parent="WIyWlLk6GJQsqaUBKTNV-1" source="FudFvcWRR2rMcuXvYy12-30" target="FudFvcWRR2rMcuXvYy12-32" edge="1">
          <mxGeometry relative="1" as="geometry" />
        </mxCell>
        <mxCell id="FudFvcWRR2rMcuXvYy12-30" value="&lt;div&gt;M.append(shiftedArr)&lt;/div&gt;i += 1" style="rounded=0;whiteSpace=wrap;html=1;" parent="WIyWlLk6GJQsqaUBKTNV-1" vertex="1">
          <mxGeometry x="499.43" y="1109" width="180" height="40" as="geometry" />
        </mxCell>
        <mxCell id="FudFvcWRR2rMcuXvYy12-44" style="edgeStyle=orthogonalEdgeStyle;rounded=0;orthogonalLoop=1;jettySize=auto;html=1;fontFamily=Helvetica;fontSize=12;fontColor=default;" parent="WIyWlLk6GJQsqaUBKTNV-1" source="FudFvcWRR2rMcuXvYy12-32" target="FudFvcWRR2rMcuXvYy12-43" edge="1">
          <mxGeometry relative="1" as="geometry" />
        </mxCell>
        <mxCell id="FudFvcWRR2rMcuXvYy12-45" value="No" style="edgeLabel;html=1;align=center;verticalAlign=middle;resizable=0;points=[];rounded=0;strokeColor=default;fontFamily=Helvetica;fontSize=12;fontColor=default;fillColor=default;" parent="FudFvcWRR2rMcuXvYy12-44" vertex="1" connectable="0">
          <mxGeometry x="0.5467" y="-2" relative="1" as="geometry">
            <mxPoint as="offset" />
          </mxGeometry>
        </mxCell>
        <mxCell id="FudFvcWRR2rMcuXvYy12-32" value="is i &amp;lt; dim - 1" style="rhombus;whiteSpace=wrap;html=1;direction=south;" parent="WIyWlLk6GJQsqaUBKTNV-1" vertex="1">
          <mxGeometry x="529.43" y="1170" width="120" height="80" as="geometry" />
        </mxCell>
        <mxCell id="FudFvcWRR2rMcuXvYy12-34" value="" style="endArrow=none;html=1;rounded=0;fontFamily=Helvetica;fontSize=12;fontColor=default;" parent="WIyWlLk6GJQsqaUBKTNV-1" edge="1">
          <mxGeometry width="50" height="50" relative="1" as="geometry">
            <mxPoint x="458.86" y="1210" as="sourcePoint" />
            <mxPoint x="458.86" y="820" as="targetPoint" />
          </mxGeometry>
        </mxCell>
        <mxCell id="FudFvcWRR2rMcuXvYy12-40" value="Yes" style="edgeLabel;html=1;align=center;verticalAlign=middle;resizable=0;points=[];rounded=0;strokeColor=default;fontFamily=Helvetica;fontSize=12;fontColor=default;fillColor=default;" parent="FudFvcWRR2rMcuXvYy12-34" vertex="1" connectable="0">
          <mxGeometry x="0.005" y="2" relative="1" as="geometry">
            <mxPoint as="offset" />
          </mxGeometry>
        </mxCell>
        <mxCell id="FudFvcWRR2rMcuXvYy12-37" style="edgeStyle=orthogonalEdgeStyle;rounded=0;orthogonalLoop=1;jettySize=auto;html=1;fontFamily=Helvetica;fontSize=12;fontColor=default;" parent="WIyWlLk6GJQsqaUBKTNV-1" target="FudFvcWRR2rMcuXvYy12-19" edge="1">
          <mxGeometry relative="1" as="geometry">
            <mxPoint x="589.43" y="930" as="sourcePoint" />
          </mxGeometry>
        </mxCell>
        <mxCell id="FudFvcWRR2rMcuXvYy12-38" value="" style="endArrow=none;html=1;rounded=0;fontFamily=Helvetica;fontSize=12;fontColor=default;entryX=0.5;entryY=1;entryDx=0;entryDy=0;" parent="WIyWlLk6GJQsqaUBKTNV-1" target="FudFvcWRR2rMcuXvYy12-32" edge="1">
          <mxGeometry width="50" height="50" relative="1" as="geometry">
            <mxPoint x="459.43" y="1210" as="sourcePoint" />
            <mxPoint x="519.43" y="1209.66" as="targetPoint" />
          </mxGeometry>
        </mxCell>
        <mxCell id="FudFvcWRR2rMcuXvYy12-43" value="return M" style="rounded=0;whiteSpace=wrap;html=1;" parent="WIyWlLk6GJQsqaUBKTNV-1" vertex="1">
          <mxGeometry x="499.43" y="1270" width="180" height="40" as="geometry" />
        </mxCell>
        <mxCell id="FudFvcWRR2rMcuXvYy12-53" style="edgeStyle=orthogonalEdgeStyle;rounded=0;orthogonalLoop=1;jettySize=auto;html=1;fontFamily=Helvetica;fontSize=12;fontColor=default;" parent="WIyWlLk6GJQsqaUBKTNV-1" source="FudFvcWRR2rMcuXvYy12-48" target="FudFvcWRR2rMcuXvYy12-50" edge="1">
          <mxGeometry relative="1" as="geometry" />
        </mxCell>
        <mxCell id="FudFvcWRR2rMcuXvYy12-48" value="addMatrices(M1, M2)" style="rounded=1;whiteSpace=wrap;html=1;arcSize=37;" parent="WIyWlLk6GJQsqaUBKTNV-1" vertex="1">
          <mxGeometry x="80" y="1330" width="160" height="60" as="geometry" />
        </mxCell>
        <mxCell id="FudFvcWRR2rMcuXvYy12-55" style="edgeStyle=orthogonalEdgeStyle;rounded=0;orthogonalLoop=1;jettySize=auto;html=1;fontFamily=Helvetica;fontSize=12;fontColor=default;" parent="WIyWlLk6GJQsqaUBKTNV-1" source="FudFvcWRR2rMcuXvYy12-50" target="FudFvcWRR2rMcuXvYy12-54" edge="1">
          <mxGeometry relative="1" as="geometry" />
        </mxCell>
        <mxCell id="FudFvcWRR2rMcuXvYy12-50" value="M = []&lt;div&gt;i = 0&lt;/div&gt;" style="rounded=0;whiteSpace=wrap;html=1;" parent="WIyWlLk6GJQsqaUBKTNV-1" vertex="1">
          <mxGeometry x="100" y="1410" width="120" height="40" as="geometry" />
        </mxCell>
        <mxCell id="FudFvcWRR2rMcuXvYy12-51" value="M = [arrInit]&lt;div&gt;i = 0&lt;/div&gt;" style="rounded=0;whiteSpace=wrap;html=1;" parent="WIyWlLk6GJQsqaUBKTNV-1" vertex="1">
          <mxGeometry x="529.43" y="770" width="120" height="40" as="geometry" />
        </mxCell>
        <mxCell id="FudFvcWRR2rMcuXvYy12-52" value="j = 0" style="rounded=0;whiteSpace=wrap;html=1;" parent="WIyWlLk6GJQsqaUBKTNV-1" vertex="1">
          <mxGeometry x="529.43" y="890" width="120" height="40" as="geometry" />
        </mxCell>
        <mxCell id="FudFvcWRR2rMcuXvYy12-60" value="" style="edgeStyle=orthogonalEdgeStyle;rounded=0;orthogonalLoop=1;jettySize=auto;html=1;fontFamily=Helvetica;fontSize=12;fontColor=default;" parent="WIyWlLk6GJQsqaUBKTNV-1" source="FudFvcWRR2rMcuXvYy12-54" target="FudFvcWRR2rMcuXvYy12-59" edge="1">
          <mxGeometry relative="1" as="geometry" />
        </mxCell>
        <mxCell id="FudFvcWRR2rMcuXvYy12-54" value="tempRow = []&lt;div&gt;j = 0&lt;/div&gt;" style="rounded=0;whiteSpace=wrap;html=1;" parent="WIyWlLk6GJQsqaUBKTNV-1" vertex="1">
          <mxGeometry x="100" y="1470" width="120" height="40" as="geometry" />
        </mxCell>
        <mxCell id="FudFvcWRR2rMcuXvYy12-62" style="edgeStyle=orthogonalEdgeStyle;rounded=0;orthogonalLoop=1;jettySize=auto;html=1;fontFamily=Helvetica;fontSize=12;fontColor=default;" parent="WIyWlLk6GJQsqaUBKTNV-1" source="FudFvcWRR2rMcuXvYy12-59" target="FudFvcWRR2rMcuXvYy12-61" edge="1">
          <mxGeometry relative="1" as="geometry" />
        </mxCell>
        <mxCell id="FudFvcWRR2rMcuXvYy12-59" value="&lt;div&gt;add M1[i][j] + M2[i][j] to tempRow&lt;/div&gt;j += 1" style="rounded=0;whiteSpace=wrap;html=1;" parent="WIyWlLk6GJQsqaUBKTNV-1" vertex="1">
          <mxGeometry x="60" y="1530" width="200" height="40" as="geometry" />
        </mxCell>
        <mxCell id="FudFvcWRR2rMcuXvYy12-65" style="edgeStyle=orthogonalEdgeStyle;rounded=0;orthogonalLoop=1;jettySize=auto;html=1;fontFamily=Helvetica;fontSize=12;fontColor=default;" parent="WIyWlLk6GJQsqaUBKTNV-1" source="FudFvcWRR2rMcuXvYy12-61" target="FudFvcWRR2rMcuXvYy12-66" edge="1">
          <mxGeometry relative="1" as="geometry">
            <mxPoint x="160" y="1690" as="targetPoint" />
          </mxGeometry>
        </mxCell>
        <mxCell id="HWULfpj-r3Tv-3Oo2EiX-0" value="No" style="edgeLabel;html=1;align=center;verticalAlign=middle;resizable=0;points=[];" parent="FudFvcWRR2rMcuXvYy12-65" vertex="1" connectable="0">
          <mxGeometry x="0.58" y="-1" relative="1" as="geometry">
            <mxPoint as="offset" />
          </mxGeometry>
        </mxCell>
        <mxCell id="FudFvcWRR2rMcuXvYy12-61" value="is j &amp;lt; len(M1)" style="rhombus;whiteSpace=wrap;html=1;direction=south;" parent="WIyWlLk6GJQsqaUBKTNV-1" vertex="1">
          <mxGeometry x="100" y="1590" width="120" height="80" as="geometry" />
        </mxCell>
        <mxCell id="FudFvcWRR2rMcuXvYy12-63" value="" style="endArrow=classic;html=1;rounded=0;fontFamily=Helvetica;fontSize=12;fontColor=default;" parent="WIyWlLk6GJQsqaUBKTNV-1" edge="1">
          <mxGeometry width="50" height="50" relative="1" as="geometry">
            <mxPoint x="459.43" y="820" as="sourcePoint" />
            <mxPoint x="589.43" y="820" as="targetPoint" />
          </mxGeometry>
        </mxCell>
        <mxCell id="FudFvcWRR2rMcuXvYy12-68" style="edgeStyle=orthogonalEdgeStyle;rounded=0;orthogonalLoop=1;jettySize=auto;html=1;fontFamily=Helvetica;fontSize=12;fontColor=default;" parent="WIyWlLk6GJQsqaUBKTNV-1" source="FudFvcWRR2rMcuXvYy12-66" target="FudFvcWRR2rMcuXvYy12-67" edge="1">
          <mxGeometry relative="1" as="geometry" />
        </mxCell>
        <mxCell id="FudFvcWRR2rMcuXvYy12-66" value="&lt;div&gt;add tempRow to M&lt;br&gt;&lt;/div&gt;i += 1" style="rounded=0;whiteSpace=wrap;html=1;" parent="WIyWlLk6GJQsqaUBKTNV-1" vertex="1">
          <mxGeometry x="60" y="1690" width="200" height="40" as="geometry" />
        </mxCell>
        <mxCell id="FudFvcWRR2rMcuXvYy12-71" value="" style="edgeStyle=orthogonalEdgeStyle;rounded=0;orthogonalLoop=1;jettySize=auto;html=1;fontFamily=Helvetica;fontSize=12;fontColor=default;" parent="WIyWlLk6GJQsqaUBKTNV-1" source="FudFvcWRR2rMcuXvYy12-67" target="FudFvcWRR2rMcuXvYy12-69" edge="1">
          <mxGeometry relative="1" as="geometry" />
        </mxCell>
        <mxCell id="HWULfpj-r3Tv-3Oo2EiX-2" value="No" style="edgeLabel;html=1;align=center;verticalAlign=middle;resizable=0;points=[];" parent="FudFvcWRR2rMcuXvYy12-71" vertex="1" connectable="0">
          <mxGeometry x="0.5" y="-1" relative="1" as="geometry">
            <mxPoint as="offset" />
          </mxGeometry>
        </mxCell>
        <mxCell id="FudFvcWRR2rMcuXvYy12-67" value="is i &amp;lt; len(M1)" style="rhombus;whiteSpace=wrap;html=1;direction=south;" parent="WIyWlLk6GJQsqaUBKTNV-1" vertex="1">
          <mxGeometry x="100" y="1750" width="120" height="80" as="geometry" />
        </mxCell>
        <mxCell id="FudFvcWRR2rMcuXvYy12-69" value="return M" style="rounded=0;whiteSpace=wrap;html=1;" parent="WIyWlLk6GJQsqaUBKTNV-1" vertex="1">
          <mxGeometry x="100" y="1850" width="120" height="40" as="geometry" />
        </mxCell>
        <mxCell id="FudFvcWRR2rMcuXvYy12-72" value="" style="endArrow=none;html=1;rounded=0;fontFamily=Helvetica;fontSize=12;fontColor=default;entryX=0.5;entryY=1;entryDx=0;entryDy=0;" parent="WIyWlLk6GJQsqaUBKTNV-1" edge="1">
          <mxGeometry width="50" height="50" relative="1" as="geometry">
            <mxPoint x="40" y="1790" as="sourcePoint" />
            <mxPoint x="100" y="1789.58" as="targetPoint" />
          </mxGeometry>
        </mxCell>
        <mxCell id="FudFvcWRR2rMcuXvYy12-73" value="" style="endArrow=none;html=1;rounded=0;fontFamily=Helvetica;fontSize=12;fontColor=default;" parent="WIyWlLk6GJQsqaUBKTNV-1" edge="1">
          <mxGeometry width="50" height="50" relative="1" as="geometry">
            <mxPoint x="40" y="1790" as="sourcePoint" />
            <mxPoint x="40" y="1460" as="targetPoint" />
          </mxGeometry>
        </mxCell>
        <mxCell id="FudFvcWRR2rMcuXvYy12-74" value="Yes" style="edgeLabel;html=1;align=center;verticalAlign=middle;resizable=0;points=[];rounded=0;strokeColor=default;fontFamily=Helvetica;fontSize=12;fontColor=default;fillColor=default;" parent="FudFvcWRR2rMcuXvYy12-73" vertex="1" connectable="0">
          <mxGeometry y="-1" relative="1" as="geometry">
            <mxPoint as="offset" />
          </mxGeometry>
        </mxCell>
        <mxCell id="FudFvcWRR2rMcuXvYy12-75" value="" style="endArrow=classic;html=1;rounded=0;fontFamily=Helvetica;fontSize=12;fontColor=default;" parent="WIyWlLk6GJQsqaUBKTNV-1" edge="1">
          <mxGeometry width="50" height="50" relative="1" as="geometry">
            <mxPoint x="49.99999999999994" y="1520" as="sourcePoint" />
            <mxPoint x="160" y="1520" as="targetPoint" />
          </mxGeometry>
        </mxCell>
        <mxCell id="FudFvcWRR2rMcuXvYy12-76" value="" style="endArrow=none;html=1;rounded=0;fontFamily=Helvetica;fontSize=12;fontColor=default;entryX=0.5;entryY=1;entryDx=0;entryDy=0;" parent="WIyWlLk6GJQsqaUBKTNV-1" edge="1">
          <mxGeometry width="50" height="50" relative="1" as="geometry">
            <mxPoint x="49.99999999999994" y="1629.58" as="sourcePoint" />
            <mxPoint x="100" y="1629.58" as="targetPoint" />
          </mxGeometry>
        </mxCell>
        <mxCell id="FudFvcWRR2rMcuXvYy12-77" value="" style="endArrow=none;html=1;rounded=0;fontFamily=Helvetica;fontSize=12;fontColor=default;" parent="WIyWlLk6GJQsqaUBKTNV-1" edge="1">
          <mxGeometry width="50" height="50" relative="1" as="geometry">
            <mxPoint x="49.99999999999994" y="1630" as="sourcePoint" />
            <mxPoint x="49.99999999999994" y="1520" as="targetPoint" />
          </mxGeometry>
        </mxCell>
        <mxCell id="FudFvcWRR2rMcuXvYy12-78" value="Yes" style="edgeLabel;html=1;align=center;verticalAlign=middle;resizable=0;points=[];rounded=0;strokeColor=default;fontFamily=Helvetica;fontSize=12;fontColor=default;fillColor=default;" parent="FudFvcWRR2rMcuXvYy12-77" vertex="1" connectable="0">
          <mxGeometry y="-1" relative="1" as="geometry">
            <mxPoint as="offset" />
          </mxGeometry>
        </mxCell>
        <mxCell id="FudFvcWRR2rMcuXvYy12-79" value="" style="endArrow=classic;html=1;rounded=0;fontFamily=Helvetica;fontSize=12;fontColor=default;" parent="WIyWlLk6GJQsqaUBKTNV-1" edge="1">
          <mxGeometry width="50" height="50" relative="1" as="geometry">
            <mxPoint x="40" y="1460" as="sourcePoint" />
            <mxPoint x="160" y="1460" as="targetPoint" />
          </mxGeometry>
        </mxCell>
        <mxCell id="HWULfpj-r3Tv-3Oo2EiX-8" style="edgeStyle=orthogonalEdgeStyle;rounded=0;orthogonalLoop=1;jettySize=auto;html=1;" parent="WIyWlLk6GJQsqaUBKTNV-1" source="HWULfpj-r3Tv-3Oo2EiX-4" target="HWULfpj-r3Tv-3Oo2EiX-7" edge="1">
          <mxGeometry relative="1" as="geometry" />
        </mxCell>
        <mxCell id="HWULfpj-r3Tv-3Oo2EiX-4" value="isMagic(M)" style="rounded=1;whiteSpace=wrap;html=1;arcSize=37;" parent="WIyWlLk6GJQsqaUBKTNV-1" vertex="1">
          <mxGeometry x="498.57" y="1330" width="120" height="60" as="geometry" />
        </mxCell>
        <mxCell id="HWULfpj-r3Tv-3Oo2EiX-13" style="edgeStyle=orthogonalEdgeStyle;rounded=0;orthogonalLoop=1;jettySize=auto;html=1;" parent="WIyWlLk6GJQsqaUBKTNV-1" source="HWULfpj-r3Tv-3Oo2EiX-7" target="HWULfpj-r3Tv-3Oo2EiX-12" edge="1">
          <mxGeometry relative="1" as="geometry" />
        </mxCell>
        <mxCell id="HWULfpj-r3Tv-3Oo2EiX-7" value="&lt;div&gt;dim = len(M)&lt;/div&gt;&lt;div&gt;diagMainSum = 0&lt;/div&gt;&lt;div&gt;diagSecSum = 0&lt;br&gt;&lt;/div&gt;&lt;div&gt;i = 0&lt;br&gt;&lt;/div&gt;" style="rounded=0;whiteSpace=wrap;html=1;" parent="WIyWlLk6GJQsqaUBKTNV-1" vertex="1">
          <mxGeometry x="498.57" y="1410" width="120" height="60" as="geometry" />
        </mxCell>
        <mxCell id="HWULfpj-r3Tv-3Oo2EiX-17" style="edgeStyle=orthogonalEdgeStyle;rounded=0;orthogonalLoop=1;jettySize=auto;html=1;" parent="WIyWlLk6GJQsqaUBKTNV-1" source="HWULfpj-r3Tv-3Oo2EiX-12" target="HWULfpj-r3Tv-3Oo2EiX-16" edge="1">
          <mxGeometry relative="1" as="geometry" />
        </mxCell>
        <mxCell id="HWULfpj-r3Tv-3Oo2EiX-12" value="&lt;div&gt;diagMainSum += M[i][i]&lt;/div&gt;&lt;div&gt;diagSecSum += M[i][dim-i]&lt;/div&gt;&lt;div&gt;i += 1&lt;br&gt;&lt;/div&gt;" style="rounded=0;whiteSpace=wrap;html=1;" parent="WIyWlLk6GJQsqaUBKTNV-1" vertex="1">
          <mxGeometry x="478.57" y="1490" width="160" height="50" as="geometry" />
        </mxCell>
        <mxCell id="HWULfpj-r3Tv-3Oo2EiX-42" style="edgeStyle=orthogonalEdgeStyle;rounded=0;orthogonalLoop=1;jettySize=auto;html=1;" parent="WIyWlLk6GJQsqaUBKTNV-1" source="HWULfpj-r3Tv-3Oo2EiX-14" target="HWULfpj-r3Tv-3Oo2EiX-41" edge="1">
          <mxGeometry relative="1" as="geometry" />
        </mxCell>
        <mxCell id="HWULfpj-r3Tv-3Oo2EiX-14" value="&lt;div&gt;currRowSum = 0&lt;br&gt;&lt;/div&gt;&lt;div&gt;currColSum = 0&lt;/div&gt;&lt;div&gt;j = 0&lt;br&gt;&lt;/div&gt;" style="rounded=0;whiteSpace=wrap;html=1;" parent="WIyWlLk6GJQsqaUBKTNV-1" vertex="1">
          <mxGeometry x="478.57" y="1828" width="160" height="50" as="geometry" />
        </mxCell>
        <mxCell id="HWULfpj-r3Tv-3Oo2EiX-29" style="edgeStyle=orthogonalEdgeStyle;rounded=0;orthogonalLoop=1;jettySize=auto;html=1;" parent="WIyWlLk6GJQsqaUBKTNV-1" source="HWULfpj-r3Tv-3Oo2EiX-16" target="HWULfpj-r3Tv-3Oo2EiX-28" edge="1">
          <mxGeometry relative="1" as="geometry" />
        </mxCell>
        <mxCell id="HWULfpj-r3Tv-3Oo2EiX-34" value="No" style="edgeLabel;html=1;align=center;verticalAlign=middle;resizable=0;points=[];" parent="HWULfpj-r3Tv-3Oo2EiX-29" vertex="1" connectable="0">
          <mxGeometry x="-0.7977" y="-1" relative="1" as="geometry">
            <mxPoint as="offset" />
          </mxGeometry>
        </mxCell>
        <mxCell id="HWULfpj-r3Tv-3Oo2EiX-16" value="is i &amp;lt; dim" style="rhombus;whiteSpace=wrap;html=1;direction=south;" parent="WIyWlLk6GJQsqaUBKTNV-1" vertex="1">
          <mxGeometry x="498.57" y="1560" width="120" height="80" as="geometry" />
        </mxCell>
        <mxCell id="HWULfpj-r3Tv-3Oo2EiX-19" value="" style="endArrow=none;html=1;rounded=0;fontFamily=Helvetica;fontSize=12;fontColor=default;entryX=0.5;entryY=1;entryDx=0;entryDy=0;" parent="WIyWlLk6GJQsqaUBKTNV-1" edge="1">
          <mxGeometry width="50" height="50" relative="1" as="geometry">
            <mxPoint x="468.57" y="1600" as="sourcePoint" />
            <mxPoint x="498.57" y="1599.67" as="targetPoint" />
          </mxGeometry>
        </mxCell>
        <mxCell id="HWULfpj-r3Tv-3Oo2EiX-22" value="" style="endArrow=none;html=1;rounded=0;fontFamily=Helvetica;fontSize=12;fontColor=default;" parent="WIyWlLk6GJQsqaUBKTNV-1" edge="1">
          <mxGeometry width="50" height="50" relative="1" as="geometry">
            <mxPoint x="468.57" y="1600" as="sourcePoint" />
            <mxPoint x="468.57" y="1480" as="targetPoint" />
          </mxGeometry>
        </mxCell>
        <mxCell id="HWULfpj-r3Tv-3Oo2EiX-23" value="Yes" style="edgeLabel;html=1;align=center;verticalAlign=middle;resizable=0;points=[];rounded=0;strokeColor=default;fontFamily=Helvetica;fontSize=12;fontColor=default;fillColor=default;" parent="HWULfpj-r3Tv-3Oo2EiX-22" vertex="1" connectable="0">
          <mxGeometry y="2" relative="1" as="geometry">
            <mxPoint as="offset" />
          </mxGeometry>
        </mxCell>
        <mxCell id="HWULfpj-r3Tv-3Oo2EiX-24" value="" style="endArrow=classic;html=1;rounded=0;" parent="WIyWlLk6GJQsqaUBKTNV-1" edge="1">
          <mxGeometry width="50" height="50" relative="1" as="geometry">
            <mxPoint x="468.57" y="1480" as="sourcePoint" />
            <mxPoint x="558.57" y="1480" as="targetPoint" />
          </mxGeometry>
        </mxCell>
        <mxCell id="HWULfpj-r3Tv-3Oo2EiX-40" style="edgeStyle=orthogonalEdgeStyle;rounded=0;orthogonalLoop=1;jettySize=auto;html=1;" parent="WIyWlLk6GJQsqaUBKTNV-1" source="HWULfpj-r3Tv-3Oo2EiX-25" target="HWULfpj-r3Tv-3Oo2EiX-14" edge="1">
          <mxGeometry relative="1" as="geometry" />
        </mxCell>
        <mxCell id="HWULfpj-r3Tv-3Oo2EiX-25" value="i = 0" style="rounded=0;whiteSpace=wrap;html=1;" parent="WIyWlLk6GJQsqaUBKTNV-1" vertex="1">
          <mxGeometry x="498.57" y="1768" width="120" height="40" as="geometry" />
        </mxCell>
        <mxCell id="HWULfpj-r3Tv-3Oo2EiX-33" value="" style="edgeStyle=orthogonalEdgeStyle;rounded=0;orthogonalLoop=1;jettySize=auto;html=1;" parent="WIyWlLk6GJQsqaUBKTNV-1" source="HWULfpj-r3Tv-3Oo2EiX-28" target="HWULfpj-r3Tv-3Oo2EiX-31" edge="1">
          <mxGeometry relative="1" as="geometry" />
        </mxCell>
        <mxCell id="HWULfpj-r3Tv-3Oo2EiX-36" value="Yes" style="edgeLabel;html=1;align=center;verticalAlign=middle;resizable=0;points=[];" parent="HWULfpj-r3Tv-3Oo2EiX-33" vertex="1" connectable="0">
          <mxGeometry x="0.222" y="1" relative="1" as="geometry">
            <mxPoint as="offset" />
          </mxGeometry>
        </mxCell>
        <mxCell id="HWULfpj-r3Tv-3Oo2EiX-72" value="" style="edgeStyle=orthogonalEdgeStyle;rounded=0;orthogonalLoop=1;jettySize=auto;html=1;" parent="WIyWlLk6GJQsqaUBKTNV-1" source="HWULfpj-r3Tv-3Oo2EiX-28" target="HWULfpj-r3Tv-3Oo2EiX-25" edge="1">
          <mxGeometry relative="1" as="geometry" />
        </mxCell>
        <mxCell id="HWULfpj-r3Tv-3Oo2EiX-28" value="is diagMainSum != to diagSecSum" style="rhombus;whiteSpace=wrap;html=1;direction=south;" parent="WIyWlLk6GJQsqaUBKTNV-1" vertex="1">
          <mxGeometry x="478.57" y="1660" width="160" height="80" as="geometry" />
        </mxCell>
        <mxCell id="HWULfpj-r3Tv-3Oo2EiX-31" value="return False" style="rounded=0;whiteSpace=wrap;html=1;" parent="WIyWlLk6GJQsqaUBKTNV-1" vertex="1">
          <mxGeometry x="668.57" y="1680" width="120" height="40" as="geometry" />
        </mxCell>
        <mxCell id="HWULfpj-r3Tv-3Oo2EiX-58" value="" style="edgeStyle=orthogonalEdgeStyle;rounded=0;orthogonalLoop=1;jettySize=auto;html=1;" parent="WIyWlLk6GJQsqaUBKTNV-1" source="HWULfpj-r3Tv-3Oo2EiX-41" target="HWULfpj-r3Tv-3Oo2EiX-56" edge="1">
          <mxGeometry relative="1" as="geometry" />
        </mxCell>
        <mxCell id="HWULfpj-r3Tv-3Oo2EiX-41" value="&lt;div&gt;currRowSum += M[i][j]&lt;/div&gt;&lt;div&gt;currColSum += M[j][i]&lt;/div&gt;&lt;div&gt;j+= 1&lt;br&gt;&lt;/div&gt;" style="rounded=0;whiteSpace=wrap;html=1;" parent="WIyWlLk6GJQsqaUBKTNV-1" vertex="1">
          <mxGeometry x="478.57" y="1898" width="160" height="50" as="geometry" />
        </mxCell>
        <mxCell id="HWULfpj-r3Tv-3Oo2EiX-47" value="" style="edgeStyle=orthogonalEdgeStyle;rounded=0;orthogonalLoop=1;jettySize=auto;html=1;" parent="WIyWlLk6GJQsqaUBKTNV-1" source="HWULfpj-r3Tv-3Oo2EiX-43" target="HWULfpj-r3Tv-3Oo2EiX-46" edge="1">
          <mxGeometry relative="1" as="geometry" />
        </mxCell>
        <mxCell id="HWULfpj-r3Tv-3Oo2EiX-48" value="No" style="edgeLabel;html=1;align=center;verticalAlign=middle;resizable=0;points=[];" parent="HWULfpj-r3Tv-3Oo2EiX-47" vertex="1" connectable="0">
          <mxGeometry x="-0.7476" y="1" relative="1" as="geometry">
            <mxPoint as="offset" />
          </mxGeometry>
        </mxCell>
        <mxCell id="HWULfpj-r3Tv-3Oo2EiX-54" style="edgeStyle=orthogonalEdgeStyle;rounded=0;orthogonalLoop=1;jettySize=auto;html=1;" parent="WIyWlLk6GJQsqaUBKTNV-1" source="HWULfpj-r3Tv-3Oo2EiX-43" target="HWULfpj-r3Tv-3Oo2EiX-53" edge="1">
          <mxGeometry relative="1" as="geometry" />
        </mxCell>
        <mxCell id="HWULfpj-r3Tv-3Oo2EiX-43" value="is currRowSum != curColSum != diagMainSum" style="rhombus;whiteSpace=wrap;html=1;direction=south;" parent="WIyWlLk6GJQsqaUBKTNV-1" vertex="1">
          <mxGeometry x="478.57" y="2068" width="160" height="100" as="geometry" />
        </mxCell>
        <mxCell id="HWULfpj-r3Tv-3Oo2EiX-46" value="return False" style="rounded=0;whiteSpace=wrap;html=1;" parent="WIyWlLk6GJQsqaUBKTNV-1" vertex="1">
          <mxGeometry x="658.57" y="2098" width="120" height="40" as="geometry" />
        </mxCell>
        <mxCell id="HWULfpj-r3Tv-3Oo2EiX-49" value="" style="endArrow=none;html=1;rounded=0;fontFamily=Helvetica;fontSize=12;fontColor=default;" parent="WIyWlLk6GJQsqaUBKTNV-1" edge="1">
          <mxGeometry width="50" height="50" relative="1" as="geometry">
            <mxPoint x="468.79" y="2008" as="sourcePoint" />
            <mxPoint x="468.57" y="1888" as="targetPoint" />
          </mxGeometry>
        </mxCell>
        <mxCell id="HWULfpj-r3Tv-3Oo2EiX-50" value="Yes" style="edgeLabel;html=1;align=center;verticalAlign=middle;resizable=0;points=[];rounded=0;strokeColor=default;fontFamily=Helvetica;fontSize=12;fontColor=default;fillColor=default;" parent="HWULfpj-r3Tv-3Oo2EiX-49" vertex="1" connectable="0">
          <mxGeometry y="2" relative="1" as="geometry">
            <mxPoint as="offset" />
          </mxGeometry>
        </mxCell>
        <mxCell id="HWULfpj-r3Tv-3Oo2EiX-51" value="" style="endArrow=none;html=1;rounded=0;fontFamily=Helvetica;fontSize=12;fontColor=default;" parent="WIyWlLk6GJQsqaUBKTNV-1" edge="1">
          <mxGeometry width="50" height="50" relative="1" as="geometry">
            <mxPoint x="468.57" y="2008" as="sourcePoint" />
            <mxPoint x="498.57" y="2008" as="targetPoint" />
          </mxGeometry>
        </mxCell>
        <mxCell id="HWULfpj-r3Tv-3Oo2EiX-63" style="edgeStyle=orthogonalEdgeStyle;rounded=0;orthogonalLoop=1;jettySize=auto;html=1;" parent="WIyWlLk6GJQsqaUBKTNV-1" source="HWULfpj-r3Tv-3Oo2EiX-53" target="HWULfpj-r3Tv-3Oo2EiX-62" edge="1">
          <mxGeometry relative="1" as="geometry" />
        </mxCell>
        <mxCell id="HWULfpj-r3Tv-3Oo2EiX-64" value="No" style="edgeLabel;html=1;align=center;verticalAlign=middle;resizable=0;points=[];" parent="HWULfpj-r3Tv-3Oo2EiX-63" vertex="1" connectable="0">
          <mxGeometry x="0.3644" y="2" relative="1" as="geometry">
            <mxPoint as="offset" />
          </mxGeometry>
        </mxCell>
        <mxCell id="HWULfpj-r3Tv-3Oo2EiX-53" value="is i &amp;lt; dim" style="rhombus;whiteSpace=wrap;html=1;direction=south;" parent="WIyWlLk6GJQsqaUBKTNV-1" vertex="1">
          <mxGeometry x="498.57" y="2188" width="120" height="80" as="geometry" />
        </mxCell>
        <mxCell id="HWULfpj-r3Tv-3Oo2EiX-59" value="" style="edgeStyle=orthogonalEdgeStyle;rounded=0;orthogonalLoop=1;jettySize=auto;html=1;" parent="WIyWlLk6GJQsqaUBKTNV-1" source="HWULfpj-r3Tv-3Oo2EiX-56" target="HWULfpj-r3Tv-3Oo2EiX-43" edge="1">
          <mxGeometry relative="1" as="geometry" />
        </mxCell>
        <mxCell id="HWULfpj-r3Tv-3Oo2EiX-61" value="No" style="edgeLabel;html=1;align=center;verticalAlign=middle;resizable=0;points=[];" parent="HWULfpj-r3Tv-3Oo2EiX-59" vertex="1" connectable="0">
          <mxGeometry y="1" relative="1" as="geometry">
            <mxPoint as="offset" />
          </mxGeometry>
        </mxCell>
        <mxCell id="HWULfpj-r3Tv-3Oo2EiX-56" value="is j &amp;lt; dim" style="rhombus;whiteSpace=wrap;html=1;direction=south;" parent="WIyWlLk6GJQsqaUBKTNV-1" vertex="1">
          <mxGeometry x="498.57" y="1968" width="120" height="80" as="geometry" />
        </mxCell>
        <mxCell id="HWULfpj-r3Tv-3Oo2EiX-60" value="" style="endArrow=classic;html=1;rounded=0;" parent="WIyWlLk6GJQsqaUBKTNV-1" edge="1">
          <mxGeometry width="50" height="50" relative="1" as="geometry">
            <mxPoint x="468.57" y="1888" as="sourcePoint" />
            <mxPoint x="558.57" y="1888" as="targetPoint" />
          </mxGeometry>
        </mxCell>
        <mxCell id="HWULfpj-r3Tv-3Oo2EiX-62" value="return True" style="rounded=0;whiteSpace=wrap;html=1;" parent="WIyWlLk6GJQsqaUBKTNV-1" vertex="1">
          <mxGeometry x="648.57" y="2208" width="120" height="40" as="geometry" />
        </mxCell>
        <mxCell id="HWULfpj-r3Tv-3Oo2EiX-65" value="" style="endArrow=none;html=1;rounded=0;fontFamily=Helvetica;fontSize=12;fontColor=default;" parent="WIyWlLk6GJQsqaUBKTNV-1" edge="1">
          <mxGeometry width="50" height="50" relative="1" as="geometry">
            <mxPoint x="448.57" y="2227.98" as="sourcePoint" />
            <mxPoint x="498.57" y="2227.7599999999998" as="targetPoint" />
          </mxGeometry>
        </mxCell>
        <mxCell id="HWULfpj-r3Tv-3Oo2EiX-66" value="" style="endArrow=none;html=1;rounded=0;fontFamily=Helvetica;fontSize=12;fontColor=default;" parent="WIyWlLk6GJQsqaUBKTNV-1" edge="1">
          <mxGeometry width="50" height="50" relative="1" as="geometry">
            <mxPoint x="448.57" y="2230" as="sourcePoint" />
            <mxPoint x="448.57" y="1820" as="targetPoint" />
          </mxGeometry>
        </mxCell>
        <mxCell id="HWULfpj-r3Tv-3Oo2EiX-67" value="Yes" style="edgeLabel;html=1;align=center;verticalAlign=middle;resizable=0;points=[];rounded=0;strokeColor=default;fontFamily=Helvetica;fontSize=12;fontColor=default;fillColor=default;" parent="HWULfpj-r3Tv-3Oo2EiX-66" vertex="1" connectable="0">
          <mxGeometry y="2" relative="1" as="geometry">
            <mxPoint as="offset" />
          </mxGeometry>
        </mxCell>
        <mxCell id="HWULfpj-r3Tv-3Oo2EiX-71" value="" style="endArrow=classic;html=1;rounded=0;" parent="WIyWlLk6GJQsqaUBKTNV-1" edge="1">
          <mxGeometry width="50" height="50" relative="1" as="geometry">
            <mxPoint x="448.57" y="1820" as="sourcePoint" />
            <mxPoint x="558.57" y="1820" as="targetPoint" />
          </mxGeometry>
        </mxCell>
        <mxCell id="HWULfpj-r3Tv-3Oo2EiX-79" value="" style="edgeStyle=orthogonalEdgeStyle;rounded=0;orthogonalLoop=1;jettySize=auto;html=1;" parent="WIyWlLk6GJQsqaUBKTNV-1" source="HWULfpj-r3Tv-3Oo2EiX-76" target="HWULfpj-r3Tv-3Oo2EiX-77" edge="1">
          <mxGeometry relative="1" as="geometry" />
        </mxCell>
        <mxCell id="HWULfpj-r3Tv-3Oo2EiX-76" value="START" style="rounded=1;whiteSpace=wrap;html=1;arcSize=50;" parent="WIyWlLk6GJQsqaUBKTNV-1" vertex="1">
          <mxGeometry x="100.33000000000006" y="30" width="120" height="60" as="geometry" />
        </mxCell>
        <mxCell id="HWULfpj-r3Tv-3Oo2EiX-86" style="edgeStyle=orthogonalEdgeStyle;rounded=0;orthogonalLoop=1;jettySize=auto;html=1;" parent="WIyWlLk6GJQsqaUBKTNV-1" source="HWULfpj-r3Tv-3Oo2EiX-77" target="HWULfpj-r3Tv-3Oo2EiX-85" edge="1">
          <mxGeometry relative="1" as="geometry" />
        </mxCell>
        <mxCell id="HWULfpj-r3Tv-3Oo2EiX-77" value="isValid = False" style="rounded=0;whiteSpace=wrap;html=1;" parent="WIyWlLk6GJQsqaUBKTNV-1" vertex="1">
          <mxGeometry x="100.33000000000006" y="110" width="120" height="40" as="geometry" />
        </mxCell>
        <mxCell id="HWULfpj-r3Tv-3Oo2EiX-96" style="edgeStyle=orthogonalEdgeStyle;rounded=0;orthogonalLoop=1;jettySize=auto;html=1;" parent="WIyWlLk6GJQsqaUBKTNV-1" source="HWULfpj-r3Tv-3Oo2EiX-81" target="HWULfpj-r3Tv-3Oo2EiX-94" edge="1">
          <mxGeometry relative="1" as="geometry" />
        </mxCell>
        <mxCell id="HWULfpj-r3Tv-3Oo2EiX-81" value="isValid" style="rhombus;whiteSpace=wrap;html=1;direction=south;" parent="WIyWlLk6GJQsqaUBKTNV-1" vertex="1">
          <mxGeometry x="100.33000000000006" y="290" width="120" height="80" as="geometry" />
        </mxCell>
        <mxCell id="HWULfpj-r3Tv-3Oo2EiX-88" style="edgeStyle=orthogonalEdgeStyle;rounded=0;orthogonalLoop=1;jettySize=auto;html=1;entryX=0.5;entryY=0;entryDx=0;entryDy=0;" parent="WIyWlLk6GJQsqaUBKTNV-1" source="HWULfpj-r3Tv-3Oo2EiX-85" target="HWULfpj-r3Tv-3Oo2EiX-87" edge="1">
          <mxGeometry relative="1" as="geometry" />
        </mxCell>
        <mxCell id="HWULfpj-r3Tv-3Oo2EiX-85" value="INPUT userDims" style="shape=parallelogram;perimeter=parallelogramPerimeter;whiteSpace=wrap;html=1;fixedSize=1;" parent="WIyWlLk6GJQsqaUBKTNV-1" vertex="1">
          <mxGeometry x="90.33000000000006" y="170" width="140" height="40" as="geometry" />
        </mxCell>
        <mxCell id="HWULfpj-r3Tv-3Oo2EiX-89" style="edgeStyle=orthogonalEdgeStyle;rounded=0;orthogonalLoop=1;jettySize=auto;html=1;" parent="WIyWlLk6GJQsqaUBKTNV-1" source="HWULfpj-r3Tv-3Oo2EiX-87" target="HWULfpj-r3Tv-3Oo2EiX-81" edge="1">
          <mxGeometry relative="1" as="geometry" />
        </mxCell>
        <mxCell id="HWULfpj-r3Tv-3Oo2EiX-87" value="isValid = checkValidity(userDims)" style="rounded=0;whiteSpace=wrap;html=1;" parent="WIyWlLk6GJQsqaUBKTNV-1" vertex="1">
          <mxGeometry x="80.33000000000006" y="230" width="160" height="40" as="geometry" />
        </mxCell>
        <mxCell id="HWULfpj-r3Tv-3Oo2EiX-90" value="" style="endArrow=none;html=1;rounded=0;fontFamily=Helvetica;fontSize=12;fontColor=default;entryX=0.5;entryY=1;entryDx=0;entryDy=0;" parent="WIyWlLk6GJQsqaUBKTNV-1" edge="1">
          <mxGeometry width="50" height="50" relative="1" as="geometry">
            <mxPoint x="70.33000000000006" y="330.0500000000002" as="sourcePoint" />
            <mxPoint x="100.33000000000006" y="329.72000000000025" as="targetPoint" />
          </mxGeometry>
        </mxCell>
        <mxCell id="HWULfpj-r3Tv-3Oo2EiX-91" value="" style="endArrow=none;html=1;rounded=0;fontFamily=Helvetica;fontSize=12;fontColor=default;" parent="WIyWlLk6GJQsqaUBKTNV-1" edge="1">
          <mxGeometry width="50" height="50" relative="1" as="geometry">
            <mxPoint x="70.05000000000008" y="330" as="sourcePoint" />
            <mxPoint x="70.33000000000006" y="160" as="targetPoint" />
          </mxGeometry>
        </mxCell>
        <mxCell id="HWULfpj-r3Tv-3Oo2EiX-92" value="No" style="edgeLabel;html=1;align=center;verticalAlign=middle;resizable=0;points=[];rounded=0;strokeColor=default;fontFamily=Helvetica;fontSize=12;fontColor=default;fillColor=default;" parent="HWULfpj-r3Tv-3Oo2EiX-91" vertex="1" connectable="0">
          <mxGeometry y="2" relative="1" as="geometry">
            <mxPoint as="offset" />
          </mxGeometry>
        </mxCell>
        <mxCell id="HWULfpj-r3Tv-3Oo2EiX-93" value="" style="endArrow=classic;html=1;rounded=0;" parent="WIyWlLk6GJQsqaUBKTNV-1" edge="1">
          <mxGeometry width="50" height="50" relative="1" as="geometry">
            <mxPoint x="70.33000000000006" y="160" as="sourcePoint" />
            <mxPoint x="160.32999999999993" y="160" as="targetPoint" />
          </mxGeometry>
        </mxCell>
        <mxCell id="HWULfpj-r3Tv-3Oo2EiX-99" style="edgeStyle=orthogonalEdgeStyle;rounded=0;orthogonalLoop=1;jettySize=auto;html=1;" parent="WIyWlLk6GJQsqaUBKTNV-1" source="HWULfpj-r3Tv-3Oo2EiX-94" target="HWULfpj-r3Tv-3Oo2EiX-98" edge="1">
          <mxGeometry relative="1" as="geometry" />
        </mxCell>
        <mxCell id="HWULfpj-r3Tv-3Oo2EiX-94" value="&lt;div&gt;A = generateMagicSquare(userDims, 2)&lt;/div&gt;&lt;div&gt;B = generateMagicSquare(userDims, 3, True)&lt;/div&gt;&lt;div&gt;sumMatrix = addMatrices(A, B)&lt;br&gt;&lt;/div&gt;" style="rounded=0;whiteSpace=wrap;html=1;" parent="WIyWlLk6GJQsqaUBKTNV-1" vertex="1">
          <mxGeometry x="30.330000000000055" y="384" width="260" height="46" as="geometry" />
        </mxCell>
        <mxCell id="HWULfpj-r3Tv-3Oo2EiX-98" value="&lt;div&gt;OUTPUT &quot;Square One&quot;&lt;/div&gt;&lt;div&gt;OUTPUT A&lt;div&gt;OUTPUT &quot;Square Two&quot;&lt;/div&gt;OUTPUT B&lt;br&gt;&lt;/div&gt;&lt;div&gt;&lt;div&gt;OUTPUT &quot;Magic Square&quot;&lt;/div&gt;OUTPUT sumMatrix&lt;/div&gt;&lt;div&gt;OUTPUT calcualteMagicSum(userDims)&lt;br&gt;&lt;/div&gt;&lt;div&gt;OUTPUT isMagic(sumMatrix)&lt;br&gt;&lt;/div&gt;" style="shape=parallelogram;perimeter=parallelogramPerimeter;whiteSpace=wrap;html=1;fixedSize=1;" parent="WIyWlLk6GJQsqaUBKTNV-1" vertex="1">
          <mxGeometry x="20.000000000000014" y="450" width="280.66" height="130" as="geometry" />
        </mxCell>
        <mxCell id="HWULfpj-r3Tv-3Oo2EiX-105" value="" style="edgeStyle=orthogonalEdgeStyle;rounded=0;orthogonalLoop=1;jettySize=auto;html=1;" parent="WIyWlLk6GJQsqaUBKTNV-1" source="HWULfpj-r3Tv-3Oo2EiX-102" target="HWULfpj-r3Tv-3Oo2EiX-104" edge="1">
          <mxGeometry relative="1" as="geometry" />
        </mxCell>
        <mxCell id="HWULfpj-r3Tv-3Oo2EiX-102" value="calculateMagicNumber(dim)" style="rounded=1;whiteSpace=wrap;html=1;arcSize=37;" parent="WIyWlLk6GJQsqaUBKTNV-1" vertex="1">
          <mxGeometry x="70.33000000000004" y="1930" width="180" height="60" as="geometry" />
        </mxCell>
        <mxCell id="HWULfpj-r3Tv-3Oo2EiX-113" value="" style="edgeStyle=orthogonalEdgeStyle;rounded=0;orthogonalLoop=1;jettySize=auto;html=1;" parent="WIyWlLk6GJQsqaUBKTNV-1" source="HWULfpj-r3Tv-3Oo2EiX-104" target="HWULfpj-r3Tv-3Oo2EiX-112" edge="1">
          <mxGeometry relative="1" as="geometry" />
        </mxCell>
        <mxCell id="HWULfpj-r3Tv-3Oo2EiX-104" value="magicSumArr = []&lt;br&gt;&lt;div&gt;n = 1&lt;/div&gt;" style="rounded=0;whiteSpace=wrap;html=1;" parent="WIyWlLk6GJQsqaUBKTNV-1" vertex="1">
          <mxGeometry x="100.33000000000004" y="2010" width="120" height="40" as="geometry" />
        </mxCell>
        <mxCell id="HWULfpj-r3Tv-3Oo2EiX-118" value="" style="edgeStyle=orthogonalEdgeStyle;rounded=0;orthogonalLoop=1;jettySize=auto;html=1;" parent="WIyWlLk6GJQsqaUBKTNV-1" source="HWULfpj-r3Tv-3Oo2EiX-112" target="HWULfpj-r3Tv-3Oo2EiX-117" edge="1">
          <mxGeometry relative="1" as="geometry" />
        </mxCell>
        <mxCell id="HWULfpj-r3Tv-3Oo2EiX-112" value="&lt;div&gt;add n to magicSumArr&lt;/div&gt;n += 1" style="rounded=0;whiteSpace=wrap;html=1;" parent="WIyWlLk6GJQsqaUBKTNV-1" vertex="1">
          <mxGeometry x="90" y="2070" width="140.66" height="40" as="geometry" />
        </mxCell>
        <mxCell id="HWULfpj-r3Tv-3Oo2EiX-126" style="edgeStyle=orthogonalEdgeStyle;rounded=0;orthogonalLoop=1;jettySize=auto;html=1;" parent="WIyWlLk6GJQsqaUBKTNV-1" source="HWULfpj-r3Tv-3Oo2EiX-117" target="HWULfpj-r3Tv-3Oo2EiX-125" edge="1">
          <mxGeometry relative="1" as="geometry" />
        </mxCell>
        <mxCell id="HWULfpj-r3Tv-3Oo2EiX-117" value="is n &amp;lt; dim**2 + 1" style="rhombus;whiteSpace=wrap;html=1;direction=south;" parent="WIyWlLk6GJQsqaUBKTNV-1" vertex="1">
          <mxGeometry x="100.66000000000008" y="2130" width="120" height="80" as="geometry" />
        </mxCell>
        <mxCell id="HWULfpj-r3Tv-3Oo2EiX-119" value="" style="endArrow=none;html=1;rounded=0;fontFamily=Helvetica;fontSize=12;fontColor=default;entryX=0.5;entryY=1;entryDx=0;entryDy=0;" parent="WIyWlLk6GJQsqaUBKTNV-1" edge="1">
          <mxGeometry width="50" height="50" relative="1" as="geometry">
            <mxPoint x="70.66000000000008" y="2169.95" as="sourcePoint" />
            <mxPoint x="100.66000000000008" y="2169.62" as="targetPoint" />
          </mxGeometry>
        </mxCell>
        <mxCell id="HWULfpj-r3Tv-3Oo2EiX-120" value="" style="endArrow=none;html=1;rounded=0;fontFamily=Helvetica;fontSize=12;fontColor=default;" parent="WIyWlLk6GJQsqaUBKTNV-1" edge="1">
          <mxGeometry width="50" height="50" relative="1" as="geometry">
            <mxPoint x="70.33000000000004" y="2170" as="sourcePoint" />
            <mxPoint x="70.66000000000008" y="2060" as="targetPoint" />
          </mxGeometry>
        </mxCell>
        <mxCell id="HWULfpj-r3Tv-3Oo2EiX-121" value="Yes" style="edgeLabel;html=1;align=center;verticalAlign=middle;resizable=0;points=[];rounded=0;strokeColor=default;fontFamily=Helvetica;fontSize=12;fontColor=default;fillColor=default;" parent="HWULfpj-r3Tv-3Oo2EiX-120" vertex="1" connectable="0">
          <mxGeometry y="2" relative="1" as="geometry">
            <mxPoint as="offset" />
          </mxGeometry>
        </mxCell>
        <mxCell id="HWULfpj-r3Tv-3Oo2EiX-122" value="" style="endArrow=classic;html=1;rounded=0;" parent="WIyWlLk6GJQsqaUBKTNV-1" edge="1">
          <mxGeometry width="50" height="50" relative="1" as="geometry">
            <mxPoint x="70.33000000000004" y="2060" as="sourcePoint" />
            <mxPoint x="160.33000000000015" y="2060" as="targetPoint" />
          </mxGeometry>
        </mxCell>
        <mxCell id="HWULfpj-r3Tv-3Oo2EiX-128" style="edgeStyle=orthogonalEdgeStyle;rounded=0;orthogonalLoop=1;jettySize=auto;html=1;" parent="WIyWlLk6GJQsqaUBKTNV-1" source="HWULfpj-r3Tv-3Oo2EiX-125" target="HWULfpj-r3Tv-3Oo2EiX-127" edge="1">
          <mxGeometry relative="1" as="geometry" />
        </mxCell>
        <mxCell id="HWULfpj-r3Tv-3Oo2EiX-125" value="&lt;div&gt;magicSum = (sum of magicSumArr)/dim&lt;/div&gt;" style="rounded=0;whiteSpace=wrap;html=1;" parent="WIyWlLk6GJQsqaUBKTNV-1" vertex="1">
          <mxGeometry x="40" y="2230" width="240.66" height="40" as="geometry" />
        </mxCell>
        <mxCell id="HWULfpj-r3Tv-3Oo2EiX-127" value="return magicSum" style="rounded=0;whiteSpace=wrap;html=1;" parent="WIyWlLk6GJQsqaUBKTNV-1" vertex="1">
          <mxGeometry x="100.66000000000008" y="2290" width="120" height="40" as="geometry" />
        </mxCell>
      </root>
    </mxGraphModel>
  </diagram>
</mxfile>
